<svg id="b3d68e4c-eded-4204-8907-7b8e5824f708" data-name="Layer 1" xmlns="http://www.w3.org/2000/svg" width="865.76" height="682.89" viewBox="0 0 865.76 682.89"><path d="M296.06,358.56l13.24,20.5,43.05-.34s18.1-10.22,21.74,3.25c1.24,4.62-17.7,5.87-19.49,6-4.46.27-48.94,8-51.68,4s-17.19-17.76-17.19-17.76Z" fill="#f9b499"/><rect x="350.79" y="23.98" width="307.81" height="625.89" rx="51.62" fill="#2f2e41"/><rect x="654.83" y="178.08" width="12" height="60.33" fill="#2f2e41"/><path d="M607,37.37H580.84a19.4,19.4,0,0,1-18,26.73H448.23a19.4,19.4,0,0,1-19.39-19.4,19.6,19.6,0,0,1,1.43-7.33H405.88A40.83,40.83,0,0,0,365.05,78.2h0V595.65a40.83,40.83,0,0,0,40.83,40.82H607a40.83,40.83,0,0,0,40.83-40.82h0V78.2A40.83,40.83,0,0,0,607,37.37Z" fill="#e6e6e6"/><path d="M421.2,119.68a2.9,2.9,0,0,0-2.89,2.89V293a2.9,2.9,0,0,0,2.89,2.9H591.64a2.9,2.9,0,0,0,2.9-2.9V122.57a2.9,2.9,0,0,0-2.9-2.89Z" fill="#fff"/><path d="M576.7,320.3H545.35c-2-17.44,2.36-30.44,0-37.62H576.7A195.39,195.39,0,0,0,576.7,320.3Z" fill="#d1d3d4"/><rect x="374.45" y="362.51" width="263.93" height="119.14" fill="#ccc"/><path d="M561,205.63a54.46,54.46,0,1,1-54.46-54.45A54.46,54.46,0,0,1,561,205.63Z" fill="#d1d3d4"/><path d="M368.42,356.1a2.07,2.07,0,0,0-2.07,2.07V472.35a2.06,2.06,0,0,0,2.07,2.06h259a2.06,2.06,0,0,0,2.07-2.06V358.17a2.07,2.07,0,0,0-2.07-2.07Z" fill="#fff"/><path d="M551.21,380.88a1.24,1.24,0,0,0-1.24,1.24v6a1.24,1.24,0,0,0,1.24,1.24h35.43a1.23,1.23,0,0,0,1.24-1.24v-6a1.23,1.23,0,0,0-1.24-1.24Z" fill="#d1d3d4"/><path d="M417.05,380.88a1.24,1.24,0,0,0-1.24,1.24v6a1.24,1.24,0,0,0,1.24,1.24h10.32a1.23,1.23,0,0,0,1.24-1.24v-6a1.23,1.23,0,0,0-1.24-1.24Z" fill="#d1d3d4"/><path d="M389.79,380.88a1.23,1.23,0,0,0-1.24,1.24v6a1.23,1.23,0,0,0,1.24,1.24h10.32a1.23,1.23,0,0,0,1.24-1.24v-6a1.23,1.23,0,0,0-1.24-1.24Z" fill="#d1d3d4"/><path d="M445,380.88a1.24,1.24,0,0,0-1.24,1.24v6a1.24,1.24,0,0,0,1.24,1.24h89.24a1.24,1.24,0,0,0,1.24-1.24v-6a1.24,1.24,0,0,0-1.24-1.24Z" fill="#d1d3d4"/><path d="M465.84,441.14a1.25,1.25,0,0,0-1.25,1.24v6a1.25,1.25,0,0,0,1.25,1.24h10.32a1.25,1.25,0,0,0,1.24-1.24v-6a1.24,1.24,0,0,0-1.24-1.24Z" fill="#d1d3d4"/><path d="M438.57,441.14a1.24,1.24,0,0,0-1.24,1.24v6a1.25,1.25,0,0,0,1.24,1.24H448.9a1.25,1.25,0,0,0,1.24-1.24v-6a1.24,1.24,0,0,0-1.24-1.24Z" fill="#d1d3d4"/><path d="M493.82,441.14a1.25,1.25,0,0,0-1.25,1.24v6a1.25,1.25,0,0,0,1.25,1.24h89.23a1.25,1.25,0,0,0,1.25-1.24v-6a1.24,1.24,0,0,0-1.25-1.24Z" fill="#d1d3d4"/><path d="M440,401.68a1.24,1.24,0,0,0-1.24,1.24v6a1.24,1.24,0,0,0,1.24,1.24h35.43a1.24,1.24,0,0,0,1.24-1.24v-6a1.24,1.24,0,0,0-1.24-1.24Z" fill="#d1d3d4"/><path d="M387.64,401.68a1.24,1.24,0,0,0-1.24,1.24v6a1.24,1.24,0,0,0,1.24,1.24h35.43a1.25,1.25,0,0,0,1.24-1.24v-6a1.25,1.25,0,0,0-1.24-1.24Z" fill="#d1d3d4"/><path d="M597.84,401.68a1.25,1.25,0,0,0-1.24,1.24v6a1.25,1.25,0,0,0,1.24,1.24h10.33a1.25,1.25,0,0,0,1.24-1.24v-6a1.25,1.25,0,0,0-1.24-1.24Z" fill="#d1d3d4"/><path d="M491.66,401.68a1.25,1.25,0,0,0-1.24,1.24v6a1.25,1.25,0,0,0,1.24,1.24H580.9a1.24,1.24,0,0,0,1.24-1.24v-6a1.24,1.24,0,0,0-1.24-1.24Z" fill="#d1d3d4"/><path d="M520.36,421.77a1.24,1.24,0,0,0-1.24,1.24v6a1.25,1.25,0,0,0,1.24,1.24h35.43A1.24,1.24,0,0,0,557,429v-6a1.23,1.23,0,0,0-1.24-1.24Z" fill="#d1d3d4"/><path d="M572.73,421.77a1.24,1.24,0,0,0-1.24,1.24v6a1.25,1.25,0,0,0,1.24,1.24h35.44a1.25,1.25,0,0,0,1.24-1.24v-6a1.24,1.24,0,0,0-1.24-1.24Z" fill="#d1d3d4"/><path d="M387.64,421.77A1.23,1.23,0,0,0,386.4,423v6a1.24,1.24,0,0,0,1.24,1.24H398A1.25,1.25,0,0,0,399.2,429v-6a1.24,1.24,0,0,0-1.24-1.24Z" fill="#d1d3d4"/><path d="M414.9,421.77a1.23,1.23,0,0,0-1.24,1.24v6a1.24,1.24,0,0,0,1.24,1.24h89.24a1.25,1.25,0,0,0,1.24-1.24v-6a1.24,1.24,0,0,0-1.24-1.24Z" fill="#d1d3d4"/><path d="M512.14,180.7s10.65-3.8,17.51,11.42,17.51,32,17.51,32l-6.1,1.52s-1.52-10.66-5.32-12.18l1.52,13.7s-45.68,16-66.24-1.52l.77-5.33s-3.05.76-3.05,5.33l-2.28-2.28s2.28-4.57,9.13-10.66c4.5-4,6.05-11.61,6.58-16.36a19.73,19.73,0,0,1,4.55-10.78C491.28,180.26,499.57,174.65,512.14,180.7Z" fill="#2f2e41"/><path d="M534.84,252.19a54.49,54.49,0,0,1-59.36-1.84,22.36,22.36,0,0,1,20.19-12.77h18.2A22.35,22.35,0,0,1,534.84,252.19Z" fill="#2f2e41"/><path d="M582.85,504.83H614.2c2-14.47-2.36-28,0-37.62H582.85Q574,486,582.85,504.83Z" fill="#2f2e41"/><path d="M558.25,498H526.9c1.17-14.46,5-28,0-37.62h31.35Q567.1,479.18,558.25,498Z" fill="#d1d3d4"/><path d="M301.41,283.83s10.78-3.85,17.7,11.55,17.7,32.32,17.7,32.32l-6.15,1.54s-1.54-10.78-5.39-12.32l1.54,13.86s-46.18,16.16-66.95-1.54l.76-5.39s-3.07.77-3.07,5.39l-2.31-2.31s2.31-4.62,9.23-10.78c4.55-4,6.11-11.72,6.65-16.53a20.09,20.09,0,0,1,4.6-10.9C280.33,283.39,288.71,277.72,301.41,283.83Z" fill="#2f2e41"/><path d="M239.07,580.54l-26.83,39.78,25,25,3.24-6.47-5.55-13s.92-12,4.16-15.26,17.58-22.67,17.58-22.67Z" fill="#f9b499"/><path d="M273.31,451.92s-5.09,8.06,5.55,42.75c0,0-49.63,83.77-41.77,89.32s29.15,17.84,34.7,14.14S317.72,469,317.72,469Z" fill="#2f2e41"/><path d="M217.1,613.15l-8.1,8.1c-4.16,4.16-6.94,10.17.93,15.26s35.16,24.06,44.41,18S243.24,643,243.24,643s-3.37-12.48-5.16-9.71-1.78,8.32-1.78,8.32Z" fill="#2f2e41"/><path d="M314.94,602.28s14.81,27.29,14.81,30.53-.93,12.49-.93,12.49L357,652.24l9.72-4.62-3.24-8.33s-17.58-6-21.28-17.58-7.87-23.6-7.87-23.6Z" fill="#f9b499"/><path d="M302.91,327.94l-9.27,26.65-20.33-9.07s13.88-21.28,13.88-24.06Z" fill="#f9b499"/><path d="M305.69,422.78H281.17s-17.58,26.83-7.4,55.05a147.38,147.38,0,0,1,4.65,17.53c3.55,16.46,7.09,38.76,10.71,59.25,5.09,28.77,10.35,54,16.07,54.44,11.57.93,34.06.77,34.06-3.85,0-4-11.35-105.41-14.35-132.09a30.43,30.43,0,0,0-4-11.93h0l-.61-24.11a14.67,14.67,0,0,0-14.66-14.29Z" fill="#2f2e41"/><path d="M283,435.67c3.62,0,11.4-9.29,15.47-5.22,3,3,5.48,5.81,7.69,8.32,6.37,7.2,11.93,13.81,15.8,9.07.58-.72-1.38.94.26-.18a4,4,0,0,0,1.6-4.3c-5.62-17.58-9.11-34.42-4.65-48.48a11.47,11.47,0,0,0,.47-3.44,4.41,4.41,0,0,1,0-.52c.23-2.59.17-11.89-10.48-22.54-9.74-9.74-11.6-15.72-11.85-18.42-.06-.63-15.75-16.91-15.75-16.91a4,4,0,0,0-4.73,1.33l-5,6.91a66.1,66.1,0,0,0-6.9,35c1.37,15.69,3.73,46.7,5.67,57.89a4.1,4.1,0,0,0,1.51,2.58,3.91,3.91,0,0,0,4,.47A16.92,16.92,0,0,1,283,435.67Z" fill="#2f2e41"/><polygon points="288.62 556.07 279.5 495.32 286.92 560.9 288.62 556.07" opacity="0.2" style="isolation:isolate"/><path d="M300.2,375.93l13.23,20.5,43.06-.34s18.09-10.22,21.73,3.26c1.25,4.61-17.7,5.86-19.48,6-4.46.27-48.94,8-51.68,4s-17.2-17.75-17.2-17.75Z" fill="#f9b499"/><path d="M280.4,361.55s7.51-4.91,17.83,3.81,12.39,16.51,12.39,16.51l-24.31,14.45S262.56,371,280.4,361.55Z" fill="#2f2e41"/><path d="M280.4,361.55s7.51-4.91,17.83,3.81,12.39,16.51,12.39,16.51l-24.31,14.45S262.56,371,280.4,361.55Z" opacity="0.2"/><path d="M326.61,626.28l-3.19,11c-1.64,5.66-1.17,12.27,8.17,12.93s42.4,4.12,47.61-5.61-15.31-4.78-15.31-4.78-9-9.31-9.19-6,2.45,8.15,2.45,8.15Z" fill="#2f2e41"/><path d="M298.63,340.24l1.91-5.48s-8.79,1.82-16.53-6.56C284,328.2,286.15,334.94,298.63,340.24Z" fill="#f4a48e"/><ellipse cx="297.83" cy="312.15" rx="19.43" ry="22.84" fill="#f9b499"/><path d="M318.63,312.15c-7.67-5-13.88-10.85-18-17.75,0,0-14.08,14.2-22.68,14.91s-.79-17-.79-17l15.65-3.56,14.85,1.42,11.73,7.11Z" fill="#2f2e41"/><ellipse cx="279.29" cy="312.17" rx="2.87" ry="5.09" fill="#f9b499"/><path d="M498.15,223.51H513v13.72a7.44,7.44,0,0,1-7.44,7.45h0a7.44,7.44,0,0,1-7.45-7.45Z" fill="#f9b499"/><path d="M498.15,235.11v-3s5.54,3.27,13.4.56C511.55,232.68,505.32,237.82,498.15,235.11Z" fill="#f4a48e"/><ellipse cx="505.63" cy="211.04" rx="19.71" ry="22.78" fill="#f9b499"/><path d="M529.17,210.35c-7.59-5-13.73-10.73-17.79-17.56,0,0-13.93,14.05-22.44,14.75s-.77-16.86-.77-16.86l15.47-3.51,14.7,1.4,11.6,7Z" fill="#2f2e41"/></svg>